<svg xmlns="http://www.w3.org/2000/svg" width="1600" height="720" viewBox="0 0 1600 720" role="img" aria-labelledby="title desc">
  <title id="title">Paimon thread dump flame graph</title>
  <desc id="desc">A Spark UI page showing an executor thread dump flame graph.</desc>
  <rect width="1600" height="720" fill="#ffffff"/>
  <rect width="1600" height="54" fill="#ffffff"/>
  <rect y="54" width="1600" height="1" fill="#d9dde3"/>
  <text x="18" y="36" font-family="Arial, sans-serif" font-size="28" font-weight="700" fill="#2b2f36">Spark 3.4.4</text>
  <rect x="880" y="0" width="210" height="54" fill="#e8e8e8"/>
  <text x="902" y="36" font-family="Arial, sans-serif" font-size="22" fill="#343941">Paimon-diagnostics</text>
  <text x="20" y="116" font-family="Arial, sans-serif" font-size="34" font-weight="700" fill="#252a32">Paimon Thread Dump - 12</text>
  <text x="58" y="156" font-family="Arial, sans-serif" font-size="18" fill="#006db6">Executors | Profiler</text>
  <text x="20" y="204" font-family="Arial, sans-serif" font-size="25" font-weight="700" fill="#252a32">Executor 12</text>
  <text x="20" y="244" font-family="Arial, sans-serif" font-size="18" fill="#252a32">Updated at 2026/05/27 10:38:36. Samples: 20 threads.</text>
  <text x="20" y="288" font-family="Arial, sans-serif" font-size="26" font-weight="700" fill="#252a32">Flame Graph</text>
  <g transform="translate(20 314)">
    <rect width="1560" height="28" fill="#e9767e"/><text x="8" y="20" font-family="Arial, sans-serif" font-size="16" fill="#121212">root</text>
    <rect y="31" width="1120" height="24" fill="#cbe879"/><text x="8" y="49" font-family="Arial, sans-serif" font-size="15">java.lang.Thread.run(Thread.java:748)</text>
    <rect y="58" width="720" height="24" fill="#9cdf72"/><text x="8" y="76" font-family="Arial, sans-serif" font-size="15">java.util.concurrent.ThreadPoolExecutor$Worker.run</text>
    <rect x="724" y="58" width="340" height="24" fill="#86d3e8"/><text x="734" y="76" font-family="Arial, sans-serif" font-size="15">io.netty.util.concurrent.FastThreadLocalRunnable</text>
    <rect x="1080" y="58" width="390" height="24" fill="#9cdf72"/><text x="1090" y="76" font-family="Arial, sans-serif" font-size="15">org.apache.spark.rpc dispatcher</text>
    <rect y="85" width="390" height="24" fill="#d989e9"/><text x="8" y="103" font-family="Arial, sans-serif" font-size="15">ThreadPoolExecutor.runWorker</text>
    <rect x="394" y="85" width="330" height="24" fill="#b18bea"/><text x="404" y="103" font-family="Arial, sans-serif" font-size="15">ThreadPoolExecutor.run</text>
    <rect x="728" y="85" width="336" height="24" fill="#86d3e8"/><text x="738" y="103" font-family="Arial, sans-serif" font-size="15">ThreadExecutorMap.run</text>
    <rect x="1080" y="85" width="190" height="24" fill="#efb378"/><text x="1090" y="103" font-family="Arial, sans-serif" font-size="15">java.lang.Object.wait</text>
    <rect y="112" width="190" height="24" fill="#76dd89"/><text x="8" y="130" font-family="Arial, sans-serif" font-size="15">org.apache.spark</text>
    <rect x="194" y="112" width="170" height="24" fill="#8dc8f0"/><text x="202" y="130" font-family="Arial, sans-serif" font-size="15">spark.rpc</text>
    <rect x="368" y="112" width="170" height="24" fill="#f2a1d8"/><text x="376" y="130" font-family="Arial, sans-serif" font-size="15">java.util.concurrent</text>
    <rect x="542" y="112" width="182" height="24" fill="#d0f070"/><text x="550" y="130" font-family="Arial, sans-serif" font-size="15">ScheduledThreadPool</text>
    <rect x="728" y="112" width="150" height="24" fill="#86d3e8"/><text x="736" y="130" font-family="Arial, sans-serif" font-size="15">SingleThreadEventExecutor</text>
    <rect x="882" y="112" width="182" height="24" fill="#7ed9cc"/><text x="890" y="130" font-family="Arial, sans-serif" font-size="15">NioEventLoop.run</text>
    <g font-family="Arial, sans-serif" font-size="13" fill="#111">
      <rect y="142" width="78" height="24" fill="#8ee68d"/><text x="6" y="159">spark</text>
      <rect y="170" width="78" height="24" fill="#ef8ea4"/><text x="6" y="187">rpc</text>
      <rect y="198" width="78" height="24" fill="#9ed5ef"/><text x="6" y="215">scheduler</text>
      <rect x="84" y="142" width="78" height="24" fill="#efb378"/><text x="90" y="159">storage</text>
      <rect x="84" y="170" width="78" height="24" fill="#92e5a1"/><text x="90" y="187">task</text>
      <rect x="168" y="142" width="78" height="24" fill="#d989e9"/><text x="174" y="159">locks</text>
      <rect x="252" y="142" width="112" height="24" fill="#ffb0b0"/><text x="258" y="159">Unsafe.park</text>
      <rect x="368" y="142" width="170" height="24" fill="#95e190"/><text x="376" y="159">ScheduledFutureTask</text>
      <rect x="542" y="142" width="182" height="24" fill="#a0d7f2"/><text x="550" y="159">LockSupport.park</text>
      <rect x="728" y="142" width="150" height="24" fill="#9be7df"/><text x="736" y="159">SelectorImpl.lock</text>
      <rect x="882" y="142" width="182" height="24" fill="#f0a6d7"/><text x="890" y="159">sun.nio.ch.Selector</text>
      <rect x="1080" y="112" width="80" height="24" fill="#7ee39a"/><text x="1088" y="129">paimon</text>
      <rect x="1080" y="142" width="80" height="24" fill="#d989e9"/><text x="1088" y="159">reader</text>
      <rect x="1080" y="170" width="80" height="24" fill="#f08e8e"/><text x="1088" y="187">object</text>
      <rect x="1080" y="198" width="80" height="24" fill="#9ed5ef"/><text x="1088" y="215">store</text>
      <rect x="1168" y="112" width="78" height="24" fill="#86e6a8"/><text x="1174" y="129">java</text>
      <rect x="1252" y="112" width="78" height="24" fill="#efb378"/><text x="1258" y="129">netty</text>
      <rect x="1336" y="112" width="78" height="24" fill="#f2a1d8"/><text x="1342" y="129">rpc</text>
      <rect x="1420" y="112" width="78" height="24" fill="#92e5a1"/><text x="1426" y="129">task</text>
    </g>
  </g>
</svg>
